<svg data-v-0dd9719b="" version="1.0" xmlns="http://www.w3.org/2000/svg" xmlns:xlink="http://www.w3.org/1999/xlink" width="100%" height="100%" viewBox="0 0 340.000000 250.000000" preserveAspectRatio="xMidYMid meet" color-interpolation-filters="sRGB" style="margin: auto;"> <rect data-v-0dd9719b="" x="0" y="0" width="100%" height="100%" fill="#ffffff" fill-opacity="1" class="background"></rect> <!----> <g data-v-0dd9719b="" fill="#231F4D" class="icon-text-wrapper icon-svg-group iconsvg" transform="translate(94.29000091552734,69.27120590209961)"><g class="iconsvg-imagesvg" transform="translate(45.709999084472656,0)"><g><rect fill="#231F4D" fill-opacity="0" stroke-width="2" x="0" y="0" width="60" height="60.267588091124594" class="image-rect"></rect> <svg x="0" y="0" width="60" height="60.267588091124594" filtersec="colorsb3985771797" class="image-svg-svg primary" style="overflow: visible;"><svg xmlns="http://www.w3.org/2000/svg" viewBox="0 -0.000030737668566871434 751.2100830078125 754.56005859375"><g><g><path d="M376.44 0a376.37 376.37 0 0 1 169 40v339.79h-71.96V84.22a307.26 307.26 0 0 0-97-15.62c-170 0-307.85 137.86-307.85 307.84a306.61 306.61 0 0 0 75.29 201.68v94.33C56.27 603.52 0 496.54 0 376.44 0 168.58 168.57 0 376.44 0z" fill="#231f4d" fill-rule="evenodd"></path><path d="M339.63 230.88h71.94v292.79h-71.94z" fill="#df2467"></path><path d="M374.77 754.56a376.42 376.42 0 0 1-169-40V374.77h71.94v295.57a307.3 307.3 0 0 0 97 15.62c170 0 307.84-137.86 307.84-307.84a306.6 306.6 0 0 0-75.28-201.68V82.11C694.93 151 751.21 258 751.21 378.12c0 207.88-168.58 376.44-376.44 376.44z" fill="#df2467" fill-rule="evenodd"></path></g></g></svg></svg> <!----></g></g> <g transform="translate(0,67.2675895690918)"><g data-gra="path-name" fill-rule="" class="tp-name iconsvg-namesvg"><g transform="scale(1)"><g><path d="M15.39-25.64C7.79-25.64 1.62-19.84 1.62-12.61 1.62-5.42 7.79 0.37 15.39 0.37 23 0.37 29.16-5.42 29.16-12.61 29.16-19.84 23-25.64 15.39-25.64ZM15.39-5.42C11.31-5.42 7.97-8.67 7.97-12.61 7.97-16.6 11.31-19.84 15.39-19.84 19.52-19.84 22.81-16.6 22.81-12.61 22.81-8.67 19.52-5.42 15.39-5.42ZM52.71-34.96L52.71-23.74C50.63-24.9 48.08-25.64 45.39-25.64 38.39-25.64 32.64-20.49 32.64-12.61 32.64-4.87 38.39 0.42 45.39 0.42 48.03 0.42 50.67-0.32 52.71-1.53L52.71 0 59.2 0 59.2-34.96ZM46.55-5.42C42.24-5.42 39.04-8.35 39.04-12.61 39.04-16.74 42.24-19.84 46.55-19.84 49-19.84 51.18-19.01 52.71-17.71L52.71-7.6C51.18-6.26 48.96-5.42 46.55-5.42ZM83.91-34.96L83.91-23.74C81.83-24.9 79.28-25.64 76.59-25.64 69.59-25.64 63.84-20.49 63.84-12.61 63.84-4.87 69.59 0.42 76.59 0.42 79.23 0.42 81.87-0.32 83.91-1.53L83.91 0 90.41 0 90.41-34.96ZM77.75-5.42C73.44-5.42 70.24-8.35 70.24-12.61 70.24-16.74 73.44-19.84 77.75-19.84 80.21-19.84 82.38-19.01 83.91-17.71L83.91-7.6C82.38-6.26 80.16-5.42 77.75-5.42ZM96.34 0L102.78 0 102.78-25.17 96.34-25.17ZM99.54-27.91C101.58-27.91 103.2-29.58 103.2-31.66 103.2-33.75 101.58-35.47 99.54-35.47 97.5-35.47 95.83-33.75 95.83-31.66 95.83-29.58 97.5-27.91 99.54-27.91ZM123.97-19.84L123.97-25.17 116.92-25.17 116.92-34.96 110.43-34.96 110.43-25.17 106.86-25.17 106.86-19.84 110.43-19.84 110.43-7.56C110.43-2.27 113.82 0.37 118.04 0.37 121.65 0.37 123.6-0.46 123.88-0.56L123.88-5.38C123-5.29 122.02-5.15 120.91-5.15 117.67-5.15 116.92-6.44 116.92-10.94L116.92-19.84ZM146.41-25.17L139.92-8.07 139.46-8.07 132.83-25.17 126.06-25.17 135.89 0 136.44 0C135.01 2.92 131.9 3.8 128.42 3.8L127.73 3.8 126.94 8.67C127.63 8.72 128.38 8.72 129.21 8.72 134.5 8.72 140.43 7.05 142.65 1.34L153.04-25.17Z" transform="translate(-1.6200000047683716, 35.470001220703125)"></path></g> <!----> <!----> <!----> <!----> <!----> <!----> <!----></g></g> <!----></g></g><defs v-gra="od"></defs></svg>